<svg width="24" height="30" viewBox="0 0 24 30" fill="none" xmlns="http://www.w3.org/2000/svg">
<path d="M2.66666 29.0276H21.3333C22.0406 29.0276 22.7188 28.7218 23.2189 28.1774C23.719 27.6331 24 26.8948 24 26.1249V13.063C24.001 12.872 23.9674 12.6827 23.901 12.5059C23.8347 12.329 23.7369 12.1682 23.6133 12.0326L12.9467 0.422034C12.6968 0.151724 12.3589 0 12.0067 0C11.6544 0 11.3165 0.151724 11.0667 0.422034L0.4 12.0326C0.274015 12.167 0.173789 12.3273 0.105127 12.5042C0.0364648 12.6811 0.000732333 12.871 0 13.063V26.1249C0 26.8948 0.280951 27.6331 0.781048 28.1774C1.28114 28.7218 1.95942 29.0276 2.66666 29.0276ZM9.33332 26.1249V18.8683H14.6667V26.1249H9.33332ZM2.66666 13.6581L12 3.49883L21.3333 13.6581V26.1249H17.3333V18.8683C17.3333 18.0985 17.0524 17.3602 16.5523 16.8158C16.0522 16.2715 15.3739 15.9657 14.6667 15.9657H9.33332C8.62608 15.9657 7.94781 16.2715 7.44771 16.8158C6.94761 17.3602 6.66666 18.0985 6.66666 18.8683V26.1249H2.66666V13.6581Z" fill="white"/>
</svg>
