<svg width="8" height="31" viewBox="0 0 8 31" fill="none" xmlns="http://www.w3.org/2000/svg">
<path d="M4.16019 11.5945C2.04819 11.5945 0.32019 13.2571 0.32019 15.2891C0.32019 17.3211 2.04819 18.9837 4.16019 18.9837C6.27219 18.9837 8.00019 17.3211 8.00019 15.2891C8.00019 13.2571 6.27219 11.5945 4.16019 11.5945ZM4.16019 0.510818C2.04819 0.510818 0.32019 2.17338 0.32019 4.20539C0.32019 6.23741 2.04819 7.89997 4.16019 7.89997C6.27219 7.89997 8.00019 6.23741 8.00019 4.20539C8.00019 2.17338 6.27219 0.510818 4.16019 0.510818ZM4.16019 22.6783C2.04819 22.6783 0.32019 24.3408 0.32019 26.3728C0.32019 28.4049 2.04819 30.0674 4.16019 30.0674C6.27219 30.0674 8.00019 28.4049 8.00019 26.3728C8.00019 24.3408 6.27219 22.6783 4.16019 22.6783Z" fill="white"/>
</svg>
