<svg width="24" height="30" viewBox="0 0 24 30" fill="none" xmlns="http://www.w3.org/2000/svg">
<path d="M12 14.5138C15.5296 14.5138 18.4 11.2591 18.4 7.25689C18.4 3.25472 15.5296 0 12 0C8.4704 0 5.6 3.25472 5.6 7.25689C5.6 11.2591 8.4704 14.5138 12 14.5138ZM12 3.62845C13.7648 3.62845 15.2 5.25581 15.2 7.25689C15.2 9.25798 13.7648 10.8853 12 10.8853C10.2352 10.8853 8.8 9.25798 8.8 7.25689C8.8 5.25581 10.2352 3.62845 12 3.62845ZM14.4 16.328H9.6C4.3056 16.328 0 21.2101 0 27.2134V29.0276H3.2V27.2134C3.2 23.2112 6.0704 19.9565 9.6 19.9565H14.4C17.9296 19.9565 20.8 23.2112 20.8 27.2134V29.0276H24V27.2134C24 21.2101 19.6944 16.328 14.4 16.328Z" fill="white"/>
</svg>
