<svg width="24" height="27" viewBox="0 0 24 27" fill="none" xmlns="http://www.w3.org/2000/svg">
<path d="M9.95563 22.5339C12.1645 22.5334 14.3097 21.6965 16.0497 20.1566L21.5203 26.3478L23.28 24.3563L17.8094 18.1651C19.1708 16.1958 19.9107 13.7674 19.9113 11.2669C19.9113 5.05464 15.4449 0 9.95563 0C4.46634 0 0 5.05464 0 11.2669C0 17.4793 4.46634 22.5339 9.95563 22.5339ZM9.95563 2.81674C14.0735 2.81674 17.4224 6.60666 17.4224 11.2669C17.4224 15.9272 14.0735 19.7172 9.95563 19.7172C5.83773 19.7172 2.48891 15.9272 2.48891 11.2669C2.48891 6.60666 5.83773 2.81674 9.95563 2.81674Z" fill="white"/>
</svg>
